<svg xmlns="http://www.w3.org/2000/svg" viewBox="0 0 48 48" fill="none">
  <defs>
    <linearGradient id="bubbleGrad" x1="0" y1="0" x2="48" y2="48" gradientUnits="userSpaceOnUse">
      <stop offset="0%" stop-color="#00BFFF"/>
      <stop offset="100%" stop-color="#6B21D6"/>
    </linearGradient>
    <linearGradient id="slashGrad" x1="14" y1="34" x2="34" y2="14" gradientUnits="userSpaceOnUse">
      <stop offset="0%" stop-color="#6B21D6"/>
      <stop offset="100%" stop-color="#00EAFF"/>
    </linearGradient>
  </defs>
  <!-- Outer speech bubble -->
  <path d="M6 8C6 4.68629 8.68629 2 12 2H36C39.3137 2 42 4.68629 42 8V30C42 33.3137 39.3137 36 36 36H20L12 44V36H12C8.68629 36 6 33.3137 6 30V8Z" fill="url(#bubbleGrad)" opacity="0.85"/>
  <!-- Inner dark bubble -->
  <path d="M10 11C10 8.79086 11.7909 7 14 7H34C36.2091 7 38 8.79086 38 11V27C38 29.2091 36.2091 31 34 31H20L14 37V31H14C11.7909 31 10 29.2091 10 27V11Z" fill="#0A1045"/>
  <!-- Text lines -->
  <rect x="15" y="14" width="12" height="2.5" rx="1.25" fill="#6B8AFF" opacity="0.7"/>
  <rect x="15" y="20" width="8" height="2.5" rx="1.25" fill="#8B5CF6" opacity="0.6"/>
  <!-- Diagonal slash -->
  <line x1="16" y1="32" x2="36" y2="10" stroke="url(#slashGrad)" stroke-width="3.5" stroke-linecap="round"/>
</svg>
